<?xml version="1.0" encoding="UTF-8"?>
<svg version="1.1" xmlns="http://www.w3.org/2000/svg" width="500" height="500">
<path d="M0 0 C165 0 330 0 500 0 C500 165 500 330 500 500 C335 500 170 500 0 500 C0 335 0 170 0 0 Z " fill="#FE542B" transform="translate(0,0)"/>
<path d="M0 0 C37.0425 -0.12375 74.085 -0.2475 112.25 -0.375 C123.93954102 -0.42962402 135.62908203 -0.48424805 147.67285156 -0.54052734 C161.96435547 -0.56762695 161.96435547 -0.56762695 168.65814209 -0.57266235 C173.32612269 -0.57824478 177.99369249 -0.60069906 182.66156006 -0.63345337 C188.62340111 -0.6747307 194.58464825 -0.68692461 200.54661894 -0.67843366 C202.72983105 -0.6802081 204.91306478 -0.6920341 207.09615374 -0.71529078 C228.8966944 -0.93666867 228.8966944 -0.93666867 238 6 C244.99741779 13.1667985 247.4605942 20.61086773 247.36076355 30.4216156 C247.3633316 31.34825012 247.36589966 32.27488464 247.36854553 33.229599 C247.37349734 36.33350116 247.35696356 39.43691396 247.34057617 42.54077148 C247.33965689 44.80440537 247.34005811 47.06804012 247.34167194 49.33167362 C247.34234877 55.38947573 247.32497066 61.4470998 247.30384064 67.50485992 C247.2867464 73.1907863 247.28595077 78.87666954 247.28381348 84.56262207 C247.26807616 101.18760493 247.22619266 117.81255472 247.1875 134.4375 C247.125625 171.583125 247.06375 208.72875 247 247 C171.1 247 95.2 247 17 247 C17 243.04 17 239.08 17 235 C16.33059363 231.90130873 16.33059363 231.90130873 14 230.8125 C9.58457619 229.61665605 4.20543123 228.89728439 0 231 C0 154.77 0 78.54 0 0 Z " fill="#010000" transform="translate(243,10)"/>
<path d="M0 0 C75.9 0 151.8 0 230 0 C230 3.63 230 7.26 230 11 C231.51917849 14.43597292 231.51917849 14.43597292 235 16 C238.96 16 242.92 16 247 16 C247 91.9 247 167.8 247 246 C191.126875 246.1546875 191.126875 246.1546875 134.125 246.3125 C122.36504395 246.35802002 110.60508789 246.40354004 98.48876953 246.45043945 C84.12475586 246.47302246 84.12475586 246.47302246 77.39962769 246.47721863 C72.70411357 246.48187558 68.00888229 246.50060748 63.31344604 246.52787781 C57.32014317 246.56222376 51.32725042 246.57244657 45.33385825 246.56536138 C43.13679259 246.5668425 40.9397123 246.5767279 38.74273133 246.59607565 C16.54706417 246.78242878 16.54706417 246.78242878 8.2367115 239.44264698 C1.69102835 232.5682586 -0.60846742 224.66327201 -0.48101807 215.37583923 C-0.48444214 214.45156631 -0.48786621 213.5272934 -0.49139404 212.57501221 C-0.49797613 209.49101181 -0.47598611 206.40789462 -0.45410156 203.32397461 C-0.45287538 201.07010965 -0.45341162 198.81624315 -0.45556259 196.56237888 C-0.4564637 190.53985982 -0.43332133 184.51766021 -0.40512085 178.49521637 C-0.38230006 172.83896403 -0.38126615 167.18278843 -0.37841797 161.52648926 C-0.35744892 144.99678405 -0.3016041 128.46713796 -0.25 111.9375 C-0.1675 74.998125 -0.085 38.05875 0 0 Z " fill="#010000" transform="translate(10,244)"/>
<path d="M0 0 C165 0 330 0 500 0 C500 165 500 330 500 500 C335 500 170 500 0 500 C0 335 0 170 0 0 Z M15.4375 19.9375 C11.35961944 25.92093222 9.54888044 31.46663604 9.61409664 38.66822338 C9.60883753 39.41221281 9.60357842 40.15620223 9.59815994 40.92273679 C9.58422194 43.41172898 9.5915649 45.90019216 9.59886169 48.38920593 C9.5932556 50.19336192 9.58635278 51.99751426 9.57826573 53.80166084 C9.55991386 58.7566092 9.56031222 63.71140569 9.56384885 68.66638029 C9.56446094 74.01148214 9.54790395 79.35653523 9.53367615 84.70161438 C9.50875552 95.17296657 9.50051156 105.6442681 9.49883901 116.11564746 C9.49741349 124.62797145 9.49124902 133.14027872 9.48173714 141.65259743 C9.45531633 165.78829836 9.44147907 189.92395927 9.44372856 214.05967476 C9.44390836 216.0114651 9.44390836 216.0114651 9.4440918 218.00268555 C9.44421444 219.30546858 9.44433708 220.60825162 9.44446344 221.95051292 C9.44568267 243.06170552 9.41697839 264.17273756 9.3746767 285.28388371 C9.33158118 306.96233262 9.3108664 328.64070322 9.31345803 350.31919605 C9.31445384 362.48932697 9.30621705 374.6592896 9.27392387 386.82938194 C9.24660309 397.19197748 9.24008753 407.55432844 9.26045214 417.91694441 C9.27024544 423.20257143 9.27042758 428.48772927 9.2443924 433.77331161 C9.22078203 438.61650407 9.22510501 443.45885574 9.25124479 448.3020278 C9.25584665 450.04966895 9.2504126 451.797373 9.23366456 453.54493996 C9.13373939 464.71561472 9.93130786 474.25744302 17.8193683 483.02139014 C23.53984142 488.46957309 29.94678734 490.45574971 37.72066212 490.38590336 C38.84514273 490.39379203 38.84514273 490.39379203 39.99234012 490.40184006 C42.50057981 490.41577941 45.00829466 490.40843476 47.51655579 490.40113831 C49.33451153 490.40674431 51.15246365 490.4136471 52.97041005 490.42173427 C57.96342404 490.44008686 62.95628732 490.43968771 67.94932735 490.43615115 C73.33529095 490.43553909 78.72120615 490.45209568 84.10714722 490.46632385 C94.65803976 490.49124405 105.20888203 490.49948839 115.75980154 490.50116099 C124.33554847 490.50258638 132.91127881 490.50875016 141.48702049 490.51826286 C165.79886527 490.54468228 190.11067032 490.55852095 214.42252956 490.55627144 C215.73320955 490.55615157 217.04388954 490.5560317 218.39428711 490.5559082 C220.36270636 490.55572424 220.36270636 490.55572424 222.37089165 490.55553656 C243.64186473 490.55431701 264.91267853 490.58302985 286.18360553 490.6253233 C308.02250645 490.66840361 329.86132967 490.68913449 351.70027417 490.68654197 C363.96200263 490.68554571 376.22356409 490.69380228 388.48525429 490.72607613 C398.92439587 490.75337673 409.36329474 490.75992895 419.80245654 490.73954786 C425.12833978 490.72974482 430.45375724 490.72960765 435.77959633 490.7556076 C440.65722377 490.77917454 445.53401538 490.77493939 450.41162219 490.74875521 C452.17403245 490.74414382 453.93650479 490.74962334 455.69884185 490.76633544 C466.58768187 490.86273684 474.63583439 490.0181936 482.89297849 482.20992857 C488.60253384 476.35100246 490.45926117 469.21540919 490.38311005 461.20314217 C490.38806956 460.4573997 490.39302908 459.71165724 490.39813888 458.94331652 C490.41105115 456.45439558 490.40272441 453.96601499 490.39440918 451.4770813 C490.39930015 449.67063737 490.40549091 447.86419657 490.41286707 446.05776107 C490.42926342 441.10120556 490.42694926 436.14480914 490.4214921 431.188236 C490.41882156 425.8397856 490.43335413 420.49137758 490.44558716 415.14294434 C490.46664193 404.66771695 490.47118199 394.19254492 490.46939927 383.71729888 C490.46809173 375.20307518 490.47189541 366.68886874 490.47932434 358.17464828 C490.48142353 355.72228587 490.48352113 353.26992345 490.48561716 350.81756103 C490.48666069 349.5969605 490.48770422 348.37635997 490.48877937 347.11877154 C490.50768176 324.03394135 490.50663147 300.94914294 490.49981004 277.86430822 C490.49423397 256.74538067 490.5150628 235.6265744 490.54817051 214.50767519 C490.58190223 192.82242521 490.59707652 171.13723334 490.59245348 149.45195663 C490.59020835 137.27745714 490.59545848 125.10306977 490.62034607 112.92859268 C490.64135238 102.5645195 490.64495768 92.20061993 490.62604648 81.83653964 C490.61688482 76.54918318 490.61575911 71.26215047 490.63640213 65.97481918 C490.65509871 61.13247126 490.65062319 56.29071254 490.62785631 51.44838713 C490.62366728 49.69879553 490.62788077 47.94915887 490.64145225 46.1996149 C490.72912526 34.06910109 489.26728421 25.38410057 481 16 C471.65564715 9.0441389 462.08934779 9.14531328 451.00952148 9.23809814 C449.20104311 9.23117532 447.39257319 9.2216397 445.58412075 9.20973468 C440.64027873 9.18478698 435.69713547 9.19702141 430.75329161 9.21565199 C425.41166268 9.22926243 420.07015147 9.20825601 414.72854614 9.19177246 C404.27451496 9.1651246 393.82074259 9.17084117 383.36670136 9.18824831 C374.8687848 9.2018112 366.37094065 9.20363087 357.87301636 9.19710541 C356.66249869 9.19618601 355.45198102 9.19526661 354.204781 9.19431935 C351.74546216 9.19240096 349.28614334 9.19045568 346.82682455 9.1884838 C323.77811344 9.17138388 300.72954562 9.19103187 277.68085802 9.223286 C257.91379453 9.2500917 238.14694248 9.24543529 218.37988281 9.21777344 C195.41237057 9.18564784 172.44498385 9.17303175 149.47745228 9.19144702 C147.02729609 9.19335827 144.57713987 9.19524449 142.12698364 9.19710541 C140.31880579 9.19849389 140.31880579 9.19849389 138.4740991 9.19991042 C129.98863261 9.20508601 121.50324589 9.19635731 113.01779175 9.18222809 C102.6735896 9.16538209 92.32966056 9.16999168 81.98548961 9.20191255 C76.70997259 9.21765684 71.43491054 9.2238981 66.15939713 9.20401764 C61.32562551 9.18607766 56.49272858 9.1960628 51.6590358 9.22788295 C49.91492133 9.23455939 48.17073224 9.23123341 46.42666614 9.21662822 C34.55095677 9.12484335 23.54127056 10.03069612 15.4375 19.9375 Z " fill="#FEFCF9" transform="translate(0,0)"/>
<path d="M0 0 C11.88 0 23.76 0 36 0 C37.216875 4.90875 38.43375 9.8175 39.6875 14.875 C42.09191898 24.53686051 44.53804641 34.17199035 47.27612305 43.74560547 C49.09590565 50.17657761 50.60906475 56.67114122 52.12353516 63.1796875 C53.63855554 69.63426844 55.36302957 76.00612931 57.19091797 82.37817383 C58.9212465 88.49724471 60.31921891 94.66657698 61.56860352 100.90112305 C62.54323757 105.58467582 63.98491884 109.6567601 66 114 C69.29306944 102.72196573 72.14912421 91.3907255 74.68017578 79.91650391 C76.03811784 73.85013873 77.56856762 67.86206342 79.26171875 61.8828125 C82.72841405 49.61975297 85.74324515 37.24216652 88.8125 24.875 C89.41579369 22.45176765 90.01930783 20.02859018 90.62304688 17.60546875 C92.08497458 11.73770404 93.54239208 5.86884593 95 0 C106.22 0 117.44 0 129 0 C126.75010908 10.12450916 126.75010908 10.12450916 125.4753418 14.34179688 C125.19132004 15.28728394 124.90729828 16.232771 124.6146698 17.20690918 C124.31257095 18.20081665 124.01047211 19.19472412 123.69921875 20.21875 C123.22184013 21.8038739 123.22184013 21.8038739 122.7348175 23.42102051 C121.72209395 26.78160923 120.70496457 30.140844 119.6875 33.5 C118.6846339 36.82110136 117.68269362 40.14248088 116.68092346 43.46391296 C116.02920743 45.62467419 115.37714132 47.78532985 114.72471619 49.94587708 C112.45922466 57.45435184 110.22970734 64.97266927 108.02612305 72.49951172 C106.72361126 76.94286504 105.39765047 81.37886621 104.0625 85.8125 C103.55337237 87.50650649 103.04425818 89.20051703 102.53515625 90.89453125 C102.28137207 91.73838379 102.02758789 92.58223633 101.76611328 93.45166016 C100.50880886 97.63386014 99.25453998 101.81697011 98 106 C97.5039212 107.65365032 97.00782741 109.30729614 96.51171875 110.9609375 C96.26470215 111.78432617 96.01768555 112.60771484 95.76318359 113.45605469 C90.39453125 131.3515625 90.39453125 131.3515625 89.70947266 133.62988281 C89.2001876 135.33123839 88.69515098 137.03386788 88.19287109 138.73730469 C87.92684082 139.63610352 87.66081055 140.53490234 87.38671875 141.4609375 C87.14526123 142.28126465 86.90380371 143.1015918 86.6550293 143.94677734 C86 146 86 146 85 148 C71.8 148 58.6 148 45 148 C43.11819339 143.6091179 41.58597355 139.97030759 40.38671875 135.48046875 C40.11150391 134.46791016 39.83628906 133.45535156 39.55273438 132.41210938 C39.26720703 131.34798828 38.98167969 130.28386719 38.6875 129.1875 C36.64451475 121.71958987 34.53509208 114.31628431 32 107 C29.17877163 98.84024114 26.8883944 90.56248614 24.60546875 82.23828125 C22.90595992 76.09159954 21.08326265 70.02697911 19 64 C16.18271059 55.84944615 13.89227909 47.58212568 11.61425781 39.2668457 C9.64915495 32.15398034 7.50245978 25.14073343 5.04101562 18.18359375 C2.93355583 12.145027 1.57793031 6.31172126 0 0 Z " fill="#010000" transform="translate(66,62)"/>
<path d="M0 0 C41.25 0 82.5 0 125 0 C125 5.28 125 10.56 125 16 C109.16 16 93.32 16 77 16 C77.33 22.6 77.66 29.2 78 36 C80.31 35.01 82.62 34.02 85 33 C93.11139852 31.94771046 100.7387057 32.18611999 107.90625 36.3671875 C112.23864011 39.74580516 115.26555545 43.79666635 117 49 C118.18178633 60.50970132 117.22058153 70.55883695 112 81 C111.39478516 82.27230469 111.39478516 82.27230469 110.77734375 83.5703125 C109.88863428 85.39869685 108.95118177 87.20332332 108 89 C103.85967154 87.45614871 100.06446947 85.48971062 96.1875 83.375 C95.59001953 83.05015625 94.99253906 82.7253125 94.37695312 82.390625 C92.91662865 81.59620849 91.45812509 80.79844624 90 80 C90.96573524 77.53781014 91.94983953 75.1072775 93.0703125 72.7109375 C95.87811073 66.49218439 96.97557933 60.81771134 96 54 C95.34 53.01 94.68 52.02 94 51 C91.77587396 50.48284253 91.77587396 50.48284253 89.25 50.5625 C88.40953125 50.54316406 87.5690625 50.52382813 86.703125 50.50390625 C82.92622202 51.19706619 80.92327729 52.50663098 78 55 C77.34748175 57.89690506 77.10944655 59.96888584 77.1328125 62.87109375 C77.1223288 63.63043716 77.11184509 64.38978058 77.1010437 65.1721344 C77.08822196 66.77494425 77.09085427 68.37794251 77.10791016 69.98071289 C77.1249389 72.42871586 77.06745395 74.86737417 77.00390625 77.31445312 C76.65571786 85.21843804 76.65571786 85.21843804 79.75927734 92.12133789 C81.80892026 93.37783379 83.75606452 94.16442042 86 95 C91.41586321 100.84343136 92.39692332 105.18610204 92.25390625 113.0234375 C91.74214531 119.02285037 89.27425636 123.72574364 85 128 C74.52360296 134.41544314 62.11389777 134.40156819 50.24609375 132.3515625 C37.1898084 128.67506338 23.62122552 119.43183828 16 108 C17.90549596 106.46301977 19.82223593 104.94608746 21.75 103.4375 C22.28882812 102.99986328 22.82765625 102.56222656 23.3828125 102.11132812 C27.38607057 99.01124413 27.38607057 99.01124413 30.1328125 98.9609375 C32.62203496 100.34615335 34.21053782 102.07876583 36.125 104.1875 C44.88857915 113.23935478 53.91579504 117.13282226 66.44921875 117.36328125 C69.48613017 116.93076553 70.84447479 116.16545851 73 114 C73.58342353 110.45769191 73.58342353 110.45769191 73 107 C69.77388064 104.84925376 68.90098481 104.74975294 65.1875 104.8125 C64.35605469 104.81894531 63.52460938 104.82539063 62.66796875 104.83203125 C59.75829486 105.01521716 56.87576703 105.52070549 54 106 C52.35 101.38 50.7 96.76 49 92 C53 90 53 90 57 90 C57 84.72 57 79.44 57 74 C55.824375 74.61875 54.64875 75.2375 53.4375 75.875 C43.48304285 80.75701203 32.72595571 81.90497155 22.0625 78.375 C14.65616681 75.25998339 10.09887186 71.23147038 6.7265625 63.9296875 C4.24508608 57.33909959 3.76704117 49.95873776 5.87109375 43.203125 C9.80469554 34.69106866 15.38296303 30.34145251 23.88671875 26.76171875 C28.29373723 25.17323704 32.03859956 24.8647131 36.75 24.875 C37.92046875 24.87242187 39.0909375 24.86984375 40.296875 24.8671875 C44.21363105 25.00766187 48.11099083 25.51387385 52 26 C51.67 31.61 51.34 37.22 51 43 C42.875 42.8125 42.875 42.8125 40.35107422 42.72973633 C35.48679126 42.67576612 32.22360712 43.32765599 28 46 C25.60643035 49.15515999 25.67762232 52.13146779 26 56 C26.8597302 58.5791906 27.43611691 59.65009041 29.75 61.0859375 C34.5872468 63.05106901 40.39186309 62.85181576 45.3203125 61.2421875 C47.33840066 60.26767345 49.14950982 59.26489202 51 58 C51.84860596 57.49339844 52.69721191 56.98679687 53.5715332 56.46484375 C56.957215 53.0284465 56.72984053 49.87255461 56.70703125 45.296875 C56.72165405 44.5538916 56.73627686 43.8109082 56.75134277 43.04541016 C56.79856952 40.28060161 56.80300508 37.51519556 56.8125 34.75 C56.874375 28.5625 56.93625 22.375 57 16 C38.19 16 19.38 16 0 16 C0 10.72 0 5.44 0 0 Z " fill="#FB532B" transform="translate(72,308)"/>
<path d="M0 0 C41.58 0 83.16 0 126 0 C126 5.94 126 11.88 126 18 C120.72 18 115.44 18 110 18 C110 46.38 110 74.76 110 104 C102.74 104 95.48 104 88 104 C88 86.51 88 69.02 88 51 C78.18286252 54.68142655 75.35200977 57.66575181 71.015625 66.6953125 C69.92020328 69.08407553 69.92020328 69.08407553 69 72 C61.64987044 71.42351925 54.98575424 69.28953836 48 67 C49 59.57142857 49 59.57142857 50 56 C44.76694878 52.69491502 40.0299529 52.11202748 34 53 C31.18573025 54.23077315 31.18573025 54.23077315 30 57 C28.94511717 63.54027354 30.29876959 68.22379014 34.1484375 73.60546875 C39.6262035 80.52391887 46.95657121 85.77529695 54 91 C52.37938967 94.99432781 49.60660827 97.79558321 46.625 100.8125 C45.90183594 101.5849707 45.90183594 101.5849707 45.1640625 102.37304688 C43.7265625 103.83203125 43.7265625 103.83203125 41 106 C36.52134575 105.51764954 33.92451733 102.48739109 30.8125 99.5 C29.95084229 98.68305664 29.95084229 98.68305664 29.07177734 97.84960938 C27.91365736 96.74811722 26.75866162 95.64333016 25.60693359 94.53515625 C24.22165187 93.21175128 22.81040074 91.91562766 21.39453125 90.625 C11.92139827 81.75514743 6.1523604 71.53397048 5.6875 58.5 C5.83749877 51.28005934 7.73807842 45.12700052 13 40 C22.69345494 33.26387029 31.20963611 31.8575004 43 33 C48.51727105 34.1781065 53.87423526 35.53406743 58.5546875 38.76171875 C60.93613811 40.30790622 60.93613811 40.30790622 63.45703125 39.3515625 C64.29621094 38.90554687 65.13539063 38.45953125 66 38 C73.72150808 34.39590146 79.41407957 32.36868232 88 33 C88 28.05 88 23.1 88 18 C58.96 18 29.92 18 0 18 C0 12.06 0 6.12 0 0 Z " fill="#FD542B" transform="translate(304,84)"/>
<path d="M0 0 C11.22 0 22.44 0 34 0 C34 25.74 34 51.48 34 78 C22.78 78 11.56 78 0 78 C0 52.26 0 26.52 0 0 Z " fill="#050100" transform="translate(356,365)"/>
<path d="M0 0 C2.40596423 0.41482142 3.68465382 0.64798566 5.34375 2.5 C7.4719888 4.42746155 8.85666041 4.4823667 11.6875 4.6875 C12.49574219 4.75324219 13.30398438 4.81898438 14.13671875 4.88671875 C14.75160156 4.92410156 15.36648438 4.96148437 16 5 C16.02578125 5.60328125 16.0515625 6.2065625 16.078125 6.828125 C16.40331983 12.10535339 16.40331983 12.10535339 19.0625 16.5625 C19.701875 17.036875 20.34125 17.51125 21 18 C19.84826645 20.46800047 18.95216435 22.04783565 17 24 C16.53993654 26.20250992 16.53993654 26.20250992 16.375 28.625 C16.30023438 29.44226563 16.22546875 30.25953125 16.1484375 31.1015625 C16.09945312 31.72804688 16.05046875 32.35453125 16 33 C15.39671875 33.02578125 14.7934375 33.0515625 14.171875 33.078125 C8.89464661 33.40331983 8.89464661 33.40331983 4.4375 36.0625 C3.963125 36.701875 3.48875 37.34125 3 38 C0.53199953 36.84826645 -1.04783565 35.95216435 -3 34 C-5.20250992 33.53993654 -5.20250992 33.53993654 -7.625 33.375 C-8.44226563 33.30023438 -9.25953125 33.22546875 -10.1015625 33.1484375 C-10.72804688 33.09945312 -11.35453125 33.05046875 -12 33 C-12.01417969 32.41992188 -12.02835937 31.83984375 -12.04296875 31.2421875 C-12.41539502 25.14244918 -13.67989602 22.32010398 -18 18 C-17.195625 17.525625 -16.39125 17.05125 -15.5625 16.5625 C-12.00982428 13.00982428 -12.11421377 9.85927675 -12 5 C-11.38511719 4.97421875 -10.77023437 4.9484375 -10.13671875 4.921875 C-5.00745409 4.7185352 -5.00745409 4.7185352 -0.9375 1.9375 C-0.628125 1.298125 -0.31875 0.65875 0 0 Z " fill="#020000" transform="translate(371,296)"/>
</svg>
